<svg width="12" height="11" viewBox="0 0 12 11" fill="none" xmlns="http://www.w3.org/2000/svg">
<path d="M1.50962 0.0314605C1.16542 0.00453569 0.824178 0.110468 0.56028 0.326168C0.296382 0.541868 0.131221 0.849848 0.100796 1.18298C0.07037 1.51611 0.177146 1.84739 0.397852 2.1046C0.618557 2.36181 0.935298 2.52411 1.27904 2.55611C1.34469 2.56193 1.4107 2.56278 1.47649 2.55866H1.49305C1.83778 2.58431 2.17898 2.4768 2.44211 2.25961C2.70525 2.04241 2.86894 1.73319 2.89742 1.39949C2.9259 1.06579 2.81686 0.73474 2.59412 0.47865C2.37138 0.22256 2.05304 0.0622477 1.70865 0.0327337C1.64243 0.0274969 1.5759 0.0270713 1.50962 0.0314605Z" fill="#62BA89"/>
<path d="M0.240234 3.55664H2.75061V10.8724H0.240234V3.55664Z" fill="#62BA89"/>
<path d="M8.91167 3.38672C8.46593 3.42449 8.03365 3.55397 7.64372 3.76649C7.25379 3.97902 6.91519 4.26971 6.65055 4.61913V3.55707H4.13965V10.8705H6.64976V6.78679C6.64005 6.5858 6.66811 6.38478 6.73258 6.1935C6.82654 5.93479 7.00074 5.7105 7.23135 5.55134C7.46196 5.39218 7.73772 5.30591 8.0209 5.30433C8.92876 5.30433 9.29212 5.97477 9.29212 6.95943V10.871H11.8022V6.6773C11.8017 4.4307 10.5612 3.38672 8.91167 3.38672Z" fill="#62BA89"/>
</svg>
