<svg width="14" height="15" viewBox="0 0 14 15" fill="none" xmlns="http://www.w3.org/2000/svg">
<g clip-path="url(#clip0_126_1107)">
<path d="M4.40138 8.29179C4.37901 8.49488 4.33783 8.708 4.25816 8.90381C4.05944 9.39561 3.82938 9.87466 3.62797 10.3646C3.43015 10.8464 3.36301 11.3501 3.47759 11.8646C3.64946 12.6342 4.31366 13.0659 5.25267 13.034C6.2257 13.0003 7.0197 12.5222 7.78685 11.9812C8.15207 11.7235 8.50566 11.4503 8.86372 11.1843C9.69531 12.6579 10.833 13.8109 12.2044 14.7308C12.7048 15.0668 13.1175 15.0841 13.4755 14.7945C13.8954 14.4539 14.0064 14.0003 13.8784 13.4812C13.7575 12.9894 13.4881 12.5687 13.2231 12.1506C12.5732 11.1269 11.8338 10.1761 10.9145 9.3774C11.3263 8.94661 11.7085 8.51492 12.0147 8.02494C12.1185 7.85827 12.9349 6.77084 13.0405 5.65791C13.1443 4.56592 12.7164 3.89197 11.6423 3.80363C10.6119 3.71893 9.58789 3.74079 8.56295 3.86465C8.21026 3.90745 7.84951 3.94024 7.5013 3.80818C7.3715 3.759 7.34375 3.71346 7.41088 3.5641C7.62662 3.08687 7.999 2.62512 7.63736 2.05317C7.62393 2.03131 7.67585 1.97394 7.68301 1.93022C7.79132 1.29907 7.58992 0.787235 7.08595 0.408364C6.48082 -0.0451877 5.80051 -0.0788854 5.10229 0.099621C3.67363 0.465741 2.5529 1.33004 1.57271 2.40199C0.882544 3.157 0.314122 3.99579 0.075117 5.01856C-0.290105 6.57958 0.714255 7.65335 2.26734 7.37922C2.61019 7.31911 2.9396 7.22166 3.26275 7.09507C3.66647 6.9366 3.86698 7.21802 4.08361 7.41565C4.37005 7.79361 4.43271 8.00854 4.40138 8.29179ZM12.6985 12.9876C12.7684 13.1115 12.8113 13.2499 12.8561 13.3574C12.8337 13.5768 12.7138 13.5076 12.6377 13.4621C12.3405 13.2845 12.0451 13.1033 11.7586 12.9084C10.9288 12.3419 10.1939 11.6597 9.48316 10.9484C9.39902 10.8646 9.31666 10.8064 9.46347 10.6907C9.76871 10.4512 10.0632 10.1962 10.355 9.94024C10.4517 9.85554 10.5036 9.84916 10.5914 9.95936C11.3603 10.922 12.0916 11.9102 12.6985 12.9876ZM3.47848 5.70982C3.02106 5.92476 2.55469 6.1151 2.03997 6.13332C1.46171 6.15244 1.17347 5.81456 1.26656 5.21437C1.37398 4.52403 1.72578 3.95026 2.13038 3.40563C2.80622 2.49671 3.60918 1.72621 4.59742 1.1743C5.09065 0.899256 5.60984 0.721661 6.19079 0.835504C6.81561 0.957544 7.23185 1.41019 7.28735 2.05317C7.29183 2.10235 7.29989 2.16702 7.27482 2.20162C6.25345 3.64151 5.10587 4.94388 3.47848 5.70982ZM4.36379 6.8947C5.5069 6.33459 6.34297 5.68068 7.09221 4.67339C7.51651 5.06865 8.02675 5.10873 8.5531 5.09507C9.4393 5.0723 10.3246 5.07321 11.2054 5.19434C11.593 5.24716 11.6808 5.3692 11.5877 5.7672C11.4328 6.43204 11.1652 7.05772 10.7552 7.59415C9.54672 9.17339 8.10731 10.494 6.37878 11.4694C6.01176 11.6761 5.69846 11.8091 5.26342 11.7399C4.96981 11.6925 4.62159 11.4594 4.62428 11.0422C4.62786 10.4721 4.8042 9.9202 5.01277 9.36465C5.1748 8.93113 5.32518 8.44843 5.19538 7.98669C5.06827 7.53951 4.77377 7.14333 4.36379 6.8947Z" fill="#4850E5"/>
<path d="M4.27173 6.83574C5.45691 6.25468 6.42099 5.45778 7.19709 4.41406C7.63661 4.8239 8.16654 4.86579 8.71168 4.85122C9.63011 4.82754 10.5476 4.82845 11.4607 4.95414C11.8617 5.00969 11.953 5.13537 11.8573 5.54794C11.6961 6.23738 11.4195 6.88583 10.9943 7.44138C9.742 9.078 8.25068 10.4468 6.45859 11.4578C6.07815 11.6727 5.67533 11.833 5.22238 11.7775C4.79897 11.7246 4.57877 11.4869 4.55997 11.0543C4.53222 10.4186 4.76854 9.84576 4.98427 9.27016C5.15256 8.82117 5.25729 8.37126 5.12302 7.89311C4.99143 7.42772 4.69693 7.09348 4.27173 6.83574Z" fill="#D8ECFF"/>
<path d="M1.90848 6.27988C1.31589 6.29992 1.02049 5.95292 1.11537 5.33726C1.22548 4.62961 1.58622 4.04127 2.00157 3.48298C2.69442 2.55038 3.51707 1.76076 4.53038 1.19519C5.03614 0.912857 5.56876 0.730708 6.16403 0.847283C6.80496 0.972966 7.23106 1.43654 7.28835 2.09592C7.29282 2.14692 7.30088 2.21249 7.27581 2.24892C6.22669 3.72524 5.05046 5.06039 3.38279 5.84546C2.91373 6.06586 2.43572 6.26076 1.90848 6.27988Z" fill="#D8ECFF"/>
<path d="M12.961 13.4617C12.9377 13.6884 12.8133 13.6183 12.7345 13.57C12.4266 13.3861 12.1195 13.1976 11.8224 12.9954C10.9612 12.407 10.1994 11.7003 9.46273 10.9617C9.3759 10.8742 9.28997 10.8141 9.44214 10.6948C9.75903 10.4462 10.0643 10.1821 10.3668 9.91613C10.4671 9.8287 10.5208 9.82233 10.6121 9.93617C11.4088 10.9343 12.1679 11.9598 12.7981 13.0773C12.8697 13.2057 12.9144 13.3496 12.961 13.4617Z" fill="#D8ECFF"/>
</g>
<defs>
<clipPath id="clip0_126_1107">
<rect width="13.9286" height="15" fill="white"/>
</clipPath>
</defs>
</svg>
