<svg width="111" height="110" viewBox="0 0 111 110" fill="none" xmlns="http://www.w3.org/2000/svg">
<g filter="url(#filter0_f_138_952)">
<path d="M20.4893 55C20.4893 35.67 36.1593 20 55.4893 20C74.8192 20 90.4893 35.67 90.4893 55C90.4893 74.33 74.8192 90 55.4893 90C36.1593 90 20.4893 74.33 20.4893 55Z" fill="url(#paint0_linear_138_952)"/>
</g>
<g clip-path="url(#clip0_138_952)">
<path d="M69.0892 41.45C65.7892 38.25 62.0892 35.85 58.5892 34.85C54.8892 33.75 51.7892 34.25 49.8892 36.15L46.5892 39.45L43.1892 42.75L39.8892 46.05L36.5892 49.35C34.6892 51.25 34.1892 54.35 35.2892 58.05C36.2892 61.55 38.6892 65.25 41.8892 68.55C45.0892 71.75 48.7892 74.15 52.3892 75.15C53.6892 75.55 54.9892 75.75 56.0892 75.75C58.0892 75.75 59.8892 75.15 61.0892 73.85L64.3892 70.55L67.6892 67.25L70.9892 63.95L74.2892 60.65C78.2892 56.65 75.8892 48.25 69.0892 41.45ZM58.1892 36.25C61.4892 37.25 64.9892 39.45 67.9892 42.45C74.0892 48.55 76.4892 56.25 73.2892 59.45C73.1892 59.55 72.9892 59.75 72.7892 59.85C72.4892 60.05 72.2892 60.25 71.9892 60.35C71.6892 60.45 71.4892 60.55 71.1892 60.65C70.6892 60.75 70.0892 60.85 69.4892 60.85C69.1892 60.85 68.9892 60.85 68.6892 60.85C68.3892 60.85 68.1892 60.85 67.8892 60.75C66.9892 60.65 65.9892 60.35 64.8892 59.95H64.7892C64.4892 59.85 64.1892 59.65 63.8892 59.55C63.5892 59.45 63.2892 59.25 62.9892 59.15C62.8892 59.15 62.7892 59.05 62.6892 59.05C62.4892 58.95 62.1892 58.85 61.9892 58.65C61.9892 58.65 61.8892 58.65 61.8892 58.55C60.6892 57.85 59.3892 56.95 58.1892 55.95C57.4892 55.35 56.8892 54.85 56.1892 54.15C55.8892 53.85 55.5892 53.45 55.2892 53.15C54.5892 52.35 53.9892 51.65 53.3892 50.85C52.6892 49.85 51.9892 48.75 51.4892 47.75V47.65C51.2892 47.25 51.0892 46.95 50.9892 46.55C50.8892 46.25 50.6892 45.85 50.5892 45.55C50.1892 44.55 49.8892 43.45 49.7892 42.55C49.6892 42.25 49.6892 42.05 49.5892 41.75C49.5892 41.45 49.5892 41.25 49.5892 40.95C49.5892 40.35 49.6892 39.75 49.7892 39.25C49.8892 38.95 49.9892 38.65 50.0892 38.45C50.1892 38.15 50.3892 37.85 50.5892 37.65C50.6892 37.45 50.8892 37.35 50.9892 37.15C51.8892 36.25 53.2892 35.75 54.8892 35.75C55.8892 35.75 56.9892 35.95 58.1892 36.25ZM69.9892 62.85C69.9892 62.85 69.8892 62.85 69.9892 62.85C69.7892 63.05 69.6892 63.15 69.4892 63.25C69.3892 63.25 69.3892 63.35 69.2892 63.35C69.2892 63.35 69.2892 63.35 69.1892 63.35C68.9892 63.45 68.7892 63.55 68.5892 63.65C68.2892 63.75 68.0892 63.85 67.7892 63.95C67.2892 64.15 66.6892 64.25 66.0892 64.25C65.7892 64.25 65.5892 64.25 65.2892 64.25C64.9892 64.25 64.7892 64.25 64.4892 64.15C63.9892 64.05 63.3892 63.95 62.7892 63.75L64.0892 62.45L64.6892 61.85L64.8892 61.65C65.0892 61.75 65.2892 61.75 65.4892 61.85C66.2892 62.05 67.0892 62.25 67.8892 62.35C68.1892 62.35 68.3892 62.45 68.6892 62.45C68.8892 62.45 69.0892 62.45 69.2892 62.45C69.3892 62.45 69.3892 62.45 69.4892 62.45C69.7892 62.45 69.9892 62.45 70.2892 62.35C70.1892 62.55 70.0892 62.65 69.9892 62.85ZM66.5892 66.15C66.5892 66.25 66.5892 66.25 66.5892 66.15C66.3892 66.35 66.2892 66.45 66.0892 66.55C65.9892 66.55 65.9892 66.65 65.8892 66.65C65.8892 66.65 65.8892 66.65 65.7892 66.65C65.5892 66.75 65.3892 66.85 65.1892 66.95C64.8892 67.05 64.6892 67.15 64.3892 67.25C62.9892 67.65 61.2892 67.45 59.4892 66.95L61.5892 64.85C62.5892 65.25 63.5892 65.45 64.5892 65.55C64.8892 65.55 65.0892 65.65 65.3892 65.65C65.5892 65.65 65.7892 65.65 65.9892 65.65C66.0892 65.65 66.0892 65.65 66.1892 65.65C66.4892 65.65 66.6892 65.65 66.9892 65.55C66.8892 65.85 66.7892 66.05 66.5892 66.15ZM62.0892 60.35L61.4892 60.95L61.1892 61.25L59.7892 62.65C59.7892 62.65 59.6892 62.65 59.6892 62.55C59.3892 62.35 58.9892 62.25 58.6892 62.05C58.6892 62.05 58.5892 62.05 58.5892 61.95C57.8892 61.55 57.2892 61.15 56.5892 60.65L57.4892 59.75L58.7892 58.45C59.8892 59.15 60.9892 59.75 62.0892 60.35C61.9892 60.35 61.9892 60.35 62.0892 60.35ZM58.6892 63.75L58.0892 64.25L57.7892 64.55L56.3892 65.95C56.3892 65.95 56.2892 65.95 56.2892 65.85C55.8892 65.65 55.5892 65.45 55.1892 65.25C54.4892 64.85 53.8892 64.45 53.1892 63.95L55.4892 61.65C56.5892 62.45 57.5892 63.15 58.6892 63.75C58.6892 63.65 58.6892 63.65 58.6892 63.75ZM46.7892 51.75C47.2892 52.75 47.8892 53.75 48.5892 54.65C48.6892 54.75 48.6892 54.85 48.7892 54.85L48.0892 55.55L46.6892 56.95L46.5892 57.05C46.2892 56.65 45.9892 56.15 45.6892 55.75C45.2892 55.15 44.9892 54.45 44.6892 53.85L44.9892 53.55L46.7892 51.75ZM48.3892 59.55L49.0892 58.85L50.6892 57.25C51.0892 57.65 51.4892 58.15 51.8892 58.55C52.1892 58.85 52.5892 59.25 52.8892 59.55L52.9892 59.65C53.0892 59.75 53.0892 59.75 53.1892 59.85L50.8892 62.15C50.4892 61.75 49.9892 61.35 49.5892 60.95C49.1892 60.45 48.7892 59.95 48.3892 59.55ZM55.3892 67.05L53.1892 69.25C52.0892 68.75 51.0892 68.05 49.9892 67.35L52.2892 65.05C53.2892 65.85 54.2892 66.45 55.3892 67.05ZM56.5892 56.45L55.4892 57.55L54.3892 58.65C53.9892 58.25 53.4892 57.85 53.0892 57.45C52.7892 57.15 52.4892 56.75 52.1892 56.45C52.0892 56.35 51.9892 56.25 51.8892 56.15L52.5892 55.45L54.1892 53.85C54.5892 54.25 54.9892 54.75 55.3892 55.15C55.6892 55.45 56.0892 55.85 56.3892 56.15C56.3892 56.35 56.4892 56.35 56.5892 56.45ZM52.0892 51.55L51.3892 52.25L49.9892 53.65L49.8892 53.75C49.5892 53.35 49.2892 52.85 48.9892 52.45C48.6892 51.95 48.3892 51.55 48.1892 51.05C48.0892 50.85 47.9892 50.75 47.9892 50.55L48.2892 50.25L50.1892 48.35C50.6892 49.35 51.2892 50.25 51.9892 51.25C51.9892 51.45 51.9892 51.45 52.0892 51.55ZM41.1892 57.35L43.3892 55.15C43.9892 56.25 44.5892 57.25 45.3892 58.35L43.0892 60.65C42.7892 60.25 42.4892 59.85 42.2892 59.35C41.8892 58.65 41.5892 57.95 41.1892 57.35ZM48.0892 40.15C48.0892 40.45 47.9892 40.65 47.9892 40.95C47.9892 41.15 47.9892 41.45 47.9892 41.75C47.9892 41.95 47.9892 42.25 48.0892 42.45C48.1892 43.25 48.3892 44.05 48.5892 44.85C48.6892 45.05 48.6892 45.25 48.7892 45.45L48.5892 45.65L48.0892 46.25L46.6892 47.55C46.4892 46.95 46.3892 46.35 46.2892 45.85C46.2892 45.55 46.1892 45.35 46.1892 45.05C46.1892 44.75 46.1892 44.55 46.1892 44.25C46.1892 43.65 46.2892 43.15 46.3892 42.55C46.4892 42.25 46.5892 41.95 46.6892 41.75C46.7892 41.45 46.9892 41.15 47.1892 40.95C47.2892 40.75 47.4892 40.65 47.5892 40.45C47.7892 40.35 47.9892 40.25 48.0892 40.15ZM44.7892 43.45C44.7892 43.75 44.6892 43.95 44.6892 44.25C44.6892 44.45 44.6892 44.75 44.6892 45.05C44.6892 45.25 44.6892 45.55 44.7892 45.75C44.8892 46.45 44.9892 47.25 45.2892 48.05C45.3892 48.25 45.3892 48.45 45.4892 48.75L43.2892 50.95C42.7892 49.05 42.6892 47.45 42.9892 46.15V46.05C42.9892 46.05 42.9892 46.05 42.9892 45.95C43.0892 45.65 43.1892 45.45 43.2892 45.15C43.3892 44.85 43.5892 44.55 43.7892 44.35C43.8892 44.15 44.0892 44.05 44.1892 43.85C44.3892 43.65 44.5892 43.55 44.7892 43.45ZM41.4892 46.75C41.3892 48.15 41.4892 49.75 41.9892 51.45C42.0892 51.65 42.0892 51.85 42.1892 52.15L39.9892 54.25C39.0892 51.15 39.3892 48.65 40.8892 47.15C41.0892 47.05 41.2892 46.95 41.4892 46.75ZM44.9892 62.85L47.2892 60.55C47.6892 60.95 48.0892 61.45 48.4892 61.85C48.8892 62.25 49.1892 62.55 49.5892 62.95C49.6892 63.05 49.6892 63.05 49.7892 63.15L47.4892 65.45C47.0892 65.05 46.5892 64.65 46.1892 64.25C45.7892 63.75 45.3892 63.35 44.9892 62.85ZM56.1892 70.45L58.2892 68.35C59.7892 68.85 61.2892 69.15 62.6892 69.15C62.9892 69.15 63.3892 69.15 63.6892 69.05C63.5892 69.25 63.4892 69.35 63.2892 69.55C63.2892 69.55 63.2892 69.55 63.1892 69.55C62.9892 69.75 62.7892 69.85 62.5892 70.05C62.5892 70.05 62.5892 70.05 62.4892 70.05C60.9892 71.05 58.7892 71.15 56.1892 70.45ZM37.5892 50.55L38.0892 50.05C37.8892 51.45 38.0892 53.05 38.5892 54.85C38.6892 55.05 38.7892 55.25 38.7892 55.45L36.6892 57.65C35.7892 54.55 36.0892 52.05 37.5892 50.55ZM40.0892 58.45C40.6892 59.55 41.2892 60.55 42.0892 61.65L39.7892 63.95C39.0892 62.85 38.3892 61.85 37.8892 60.75L40.0892 58.45ZM41.6892 66.25L43.9892 63.95C44.3892 64.35 44.7892 64.85 45.1892 65.25C45.5892 65.65 45.8892 65.95 46.2892 66.35C46.3892 66.45 46.3892 66.45 46.4892 66.55L44.1892 68.85C43.7892 68.45 43.2892 68.05 42.8892 67.65C42.4892 67.15 42.0892 66.65 41.6892 66.25ZM48.8892 68.35C49.8892 69.15 50.9892 69.75 51.9892 70.35L49.7892 72.55C48.6892 72.05 47.6892 71.35 46.5892 70.65L48.8892 68.35ZM59.9892 72.85C58.4892 74.35 55.9892 74.65 52.8892 73.75L54.9892 71.65C56.4892 72.15 57.9892 72.45 59.3892 72.45C59.7892 72.45 60.0892 72.45 60.4892 72.35L59.9892 72.85Z" fill="black"/>
<path d="M54.9892 42.75C54.8892 42.95 54.8892 43.25 54.8892 43.55C54.8892 43.85 54.9892 44.05 55.0892 44.35V44.45C55.2892 45.05 55.5892 45.65 55.9892 46.15C56.2892 46.55 56.5892 46.95 57.0892 47.35C58.0892 48.35 59.4892 49.15 60.8892 49.35L61.5892 49.45L62.6892 49.55L63.7892 49.65H64.3892C64.9892 49.65 65.3892 50.05 65.6892 50.45C65.9892 50.85 65.9892 51.25 65.5892 51.45L65.3892 51.55L64.5892 51.75L63.6892 51.95L63.3892 52.05L61.1892 52.75L61.4892 53.15L62.4892 54.45L63.4892 55.75L65.3892 55.15L65.7892 55.05L67.1892 56.85L67.4892 56.75L68.1892 56.55L69.1892 56.25L67.7892 54.35C69.3892 53.75 68.9892 51.75 67.7892 49.95C66.6892 48.35 64.6892 46.65 62.6892 46.55L60.4892 46.35L59.2892 46.25C58.9892 46.25 58.6892 46.05 58.3892 45.75C58.2892 45.65 58.2892 45.65 58.1892 45.55C58.1892 45.55 58.1892 45.45 58.0892 45.45C58.0892 45.45 58.0892 45.35 57.9892 45.35C57.7892 44.85 58.0892 44.75 58.2892 44.65L62.0892 43.45L62.3892 43.35L61.2892 41.95L60.0892 40.35L59.1892 40.65L58.1892 40.95L57.8892 41.05L57.6892 40.75L56.7892 39.55L56.5892 39.25L56.3892 39.35L55.1892 39.75L54.5892 39.95L55.9892 41.85C55.3892 41.95 55.1892 42.25 54.9892 42.75Z" fill="black"/>
</g>
<defs>
<filter id="filter0_f_138_952" x="0.489258" y="0" width="110" height="110" filterUnits="userSpaceOnUse" color-interpolation-filters="sRGB">
<feFlood flood-opacity="0" result="BackgroundImageFix"/>
<feBlend mode="normal" in="SourceGraphic" in2="BackgroundImageFix" result="shape"/>
<feGaussianBlur stdDeviation="10" result="effect1_foregroundBlur_138_952"/>
</filter>
<linearGradient id="paint0_linear_138_952" x1="-34.2433" y1="71.7195" x2="37.3389" y2="136.065" gradientUnits="userSpaceOnUse">
<stop offset="0.745552" stop-color="#B276D9"/>
<stop offset="1" stop-color="#3E8ED7"/>
</linearGradient>
<clipPath id="clip0_138_952">
<rect width="41.6" height="41.5" fill="white" transform="translate(34.6892 34.25)"/>
</clipPath>
</defs>
</svg>
