<svg width="111" height="111" viewBox="0 0 111 111" fill="none" xmlns="http://www.w3.org/2000/svg">
<g filter="url(#filter0_f_138_950)">
<path d="M20.4893 55.0625C20.4893 35.7325 36.1593 20.0625 55.4893 20.0625C74.8192 20.0625 90.4893 35.7325 90.4893 55.0625C90.4893 74.3925 74.8192 90.0625 55.4893 90.0625C36.1593 90.0625 20.4893 74.3925 20.4893 55.0625Z" fill="url(#paint0_linear_138_950)"/>
</g>
<g clip-path="url(#clip0_138_950)">
<path d="M65.7393 44.8626C62.5393 41.6626 58.8393 39.2626 55.2393 38.2626C51.5393 37.1626 48.4393 37.6626 46.5393 39.5626L43.2393 42.8626L39.9393 46.1626C36.0393 50.0626 38.3393 58.4626 45.2393 65.3626C48.4393 68.5626 52.1393 70.9626 55.7393 71.9626C57.0393 72.3626 58.3393 72.5626 59.4393 72.5626C61.4393 72.5626 63.2393 71.9626 64.4393 70.6626L67.7393 67.3626L71.0393 64.0626C74.9393 60.0626 72.5393 51.6626 65.7393 44.8626ZM54.8393 39.6626C58.1393 40.6626 61.6393 42.8626 64.6393 45.8626C70.7393 51.9626 73.1393 59.6626 69.9393 62.8626C69.8393 62.9626 69.6393 63.1626 69.4393 63.2626C69.1393 63.4626 68.9393 63.6626 68.6393 63.7626C68.3393 63.8626 68.1393 63.9626 67.8393 64.0626C66.1393 64.4626 63.8393 64.2626 61.5393 63.2626C60.9393 63.0626 60.3393 62.7626 59.7393 62.4626C59.3393 62.2626 59.0393 62.0626 58.6393 61.8626C57.4393 61.1626 56.1393 60.2626 54.9393 59.2626C54.2393 58.6626 53.6393 58.1626 52.9393 57.4626C49.9393 54.4626 47.7393 50.9626 46.7393 47.6626C46.1393 45.7626 46.0393 44.0626 46.4393 42.6626C46.5393 42.3626 46.6393 42.0626 46.7393 41.8626C46.8393 41.5626 47.0393 41.3626 47.2393 41.0626C47.3393 40.8626 47.5393 40.7626 47.6393 40.5626C48.5393 39.6626 49.9393 39.1626 51.5393 39.1626C52.5393 39.1626 53.6393 39.3626 54.8393 39.6626ZM66.6393 66.2626C66.4393 66.4626 66.2393 66.6626 66.0393 66.7626C66.0393 66.7626 66.0393 66.7626 65.9393 66.7626C64.3393 67.7626 62.1393 67.8626 59.5393 67.0626L61.6393 64.9626C63.1393 65.4626 64.6393 65.7626 66.0393 65.7626C66.3393 65.7626 66.7393 65.7626 67.0393 65.6626C66.9393 65.9626 66.8393 66.0626 66.6393 66.2626ZM58.7393 63.7626L56.5393 65.9626C55.4393 65.4626 54.4393 64.7626 53.3393 64.0626L55.6393 61.7626C56.6393 62.5626 57.6393 63.1626 58.7393 63.7626ZM44.3393 43.9626C44.4393 43.7626 44.6393 43.6626 44.8393 43.5626C44.7393 44.9626 44.8393 46.5626 45.3393 48.2626C45.4393 48.4626 45.4393 48.6626 45.5393 48.9626L43.4393 51.0626C42.8393 48.8626 42.7393 46.8626 43.4393 45.3626C43.4393 45.0626 43.6393 44.8626 43.7393 44.6626C43.7393 44.6626 43.7393 44.5626 43.8393 44.5626C43.9393 44.3626 44.0393 44.1626 44.3393 43.9626C44.2393 43.9626 44.2393 43.9626 44.3393 43.9626ZM46.8393 51.8626C47.4393 52.9626 48.0393 53.9626 48.8393 55.0626L46.5393 57.3626C45.8393 56.2626 45.1393 55.2626 44.6393 54.1626L46.8393 51.8626ZM48.4393 59.5626L50.7393 57.2626C51.1393 57.6626 51.5393 58.1626 51.9393 58.5626C52.3393 58.9626 52.8393 59.3626 53.2393 59.7626L50.9393 62.0626C50.5393 61.6626 50.0393 61.2626 49.6393 60.8626C49.2393 60.4626 48.8393 60.0626 48.4393 59.5626ZM40.9393 47.2626L41.4393 46.7626C41.3393 47.4626 41.3393 48.1626 41.4393 48.9626V49.0626C41.4393 49.4626 41.5393 49.7626 41.6393 50.1626C41.6393 50.2626 41.6393 50.2626 41.6393 50.3626C41.7393 50.7626 41.8393 51.1626 41.9393 51.4626V51.5626V51.6626C42.0393 51.8626 42.0393 52.0626 42.1393 52.2626L40.0393 54.3626C39.2393 51.3626 39.4393 48.7626 40.9393 47.2626ZM43.4393 55.1626C44.0393 56.1626 44.6393 57.2626 45.4393 58.2626L43.1393 60.5626C42.4393 59.4626 41.7393 58.4626 41.2393 57.3626L43.4393 55.1626ZM45.0393 62.9626L47.3393 60.6626C47.3393 60.6626 47.3393 60.6626 47.4393 60.7626C47.8393 61.1626 48.2393 61.5626 48.6393 62.0626C49.0393 62.4626 49.3393 62.7626 49.7393 63.1626C49.8393 63.2626 49.8393 63.2626 49.9393 63.3626L47.6393 65.6626C47.2393 65.2626 46.7393 64.8626 46.3393 64.4626C45.8393 63.8626 45.4393 63.3626 45.0393 62.9626ZM52.2393 65.1626C53.2393 65.9626 54.3393 66.5626 55.3393 67.1626L53.1393 69.3626C52.0393 68.8626 51.0393 68.1626 49.9393 67.4626L52.2393 65.1626ZM63.3393 69.5626C61.8393 71.0626 59.3393 71.3626 56.2393 70.4626L58.3393 68.3626C59.8393 68.8626 61.3393 69.1626 62.7393 69.1626C63.1393 69.1626 63.4393 69.1626 63.8393 69.0626L63.3393 69.5626Z" fill="black"/>
<path d="M51.7393 47.7626C51.9393 48.3626 52.2393 49.0626 52.6393 49.6626C52.9393 50.0626 53.2393 50.4626 53.7393 50.8626C54.7393 51.8626 56.1393 52.6626 57.5393 52.8626L61.0393 53.1626C61.6393 53.1626 62.0393 53.5626 62.3393 53.9626C62.6393 54.3626 62.6393 54.7626 62.2393 54.9626L60.1393 55.5626L57.9393 56.2626L58.2393 56.6626L59.2393 57.9626L60.2393 59.2626L62.1393 58.6626L62.6393 58.5626L64.0393 60.3626L66.0393 59.7626L64.6393 57.8626C66.2393 57.2626 65.8393 55.2626 64.6393 53.4626C63.5393 51.8626 61.5393 50.1626 59.5393 50.0626L56.0393 49.8626C55.7393 49.8626 55.3393 49.6626 55.1393 49.3626C55.0393 49.2626 55.0393 49.2626 54.9393 49.1626C54.9393 49.1626 54.9393 49.0626 54.8393 49.0626C54.5393 48.4626 54.9393 48.3626 55.0393 48.2626L58.8393 47.0626L59.0393 46.8626L58.0393 45.4626L56.8393 43.8626L55.9393 44.1626L54.9393 44.4626L54.6393 44.5626L54.3393 44.1626L53.4393 42.9626L53.2393 42.6626L53.0393 42.7626L51.8393 43.1626L51.2393 43.3626L52.6393 45.2626C51.5393 45.5626 51.4393 46.5626 51.7393 47.7626Z" fill="black"/>
</g>
<defs>
<filter id="filter0_f_138_950" x="0.489258" y="0.0625" width="110" height="110" filterUnits="userSpaceOnUse" color-interpolation-filters="sRGB">
<feFlood flood-opacity="0" result="BackgroundImageFix"/>
<feBlend mode="normal" in="SourceGraphic" in2="BackgroundImageFix" result="shape"/>
<feGaussianBlur stdDeviation="10" result="effect1_foregroundBlur_138_950"/>
</filter>
<linearGradient id="paint0_linear_138_950" x1="-34.2433" y1="71.782" x2="37.3389" y2="136.127" gradientUnits="userSpaceOnUse">
<stop offset="0.385417" stop-color="#B276D9"/>
<stop offset="0.819574" stop-color="#3E8ED7"/>
</linearGradient>
<clipPath id="clip0_138_950">
<rect width="34.9" height="34.8" fill="white" transform="translate(38.0393 37.6626)"/>
</clipPath>
</defs>
</svg>
