<svg width="111" height="110" viewBox="0 0 111 110" fill="none" xmlns="http://www.w3.org/2000/svg">
<g filter="url(#filter0_f_138_951)">
<path d="M20.4893 55C20.4893 35.67 36.1593 20 55.4893 20C74.8192 20 90.4893 35.67 90.4893 55C90.4893 74.33 74.8192 90 55.4893 90C36.1593 90 20.4893 74.33 20.4893 55Z" fill="url(#paint0_linear_138_951)"/>
</g>
<g clip-path="url(#clip0_138_951)">
<path d="M73.9893 53.4999C72.9893 49.9999 70.5893 46.2999 67.3893 42.9999C64.1893 39.8999 60.4893 37.4999 56.9893 36.4999C53.2893 35.3999 50.1893 35.8999 48.2893 37.7999L44.8893 41.0999L41.5893 44.3999L38.2893 47.6999C36.3893 49.5999 35.8893 52.6999 36.9893 56.3999C37.9893 59.8999 40.3893 63.5999 43.5893 66.8999C46.7893 70.0999 50.4893 72.4999 54.0893 73.4999C55.3893 73.8999 56.6893 74.0999 57.7893 74.0999C59.7893 74.0999 61.5893 73.4999 62.7893 72.1999L66.0893 68.8999L69.3893 65.5999L72.6893 62.2999C74.5893 60.2999 75.0893 57.1999 73.9893 53.4999ZM64.9893 67.7999C63.5893 69.1999 61.0893 69.5999 58.1893 68.7999C58.0893 68.7999 57.9893 68.7999 57.8893 68.6999L60.0893 66.4999C60.2893 66.5999 60.5893 66.6999 60.7893 66.6999C61.9893 67.0999 63.1893 67.2999 64.2893 67.2999C64.3893 67.2999 64.3893 67.2999 64.4893 67.2999C64.7893 67.2999 65.1893 67.2999 65.4893 67.1999C65.2893 67.4999 65.0893 67.6999 64.9893 67.7999ZM42.6893 45.4999C42.7893 45.3999 42.9893 45.1999 43.1893 45.0999C43.0893 46.4999 43.1893 48.0999 43.6893 49.7999C43.7893 49.9999 43.7893 50.1999 43.8893 50.4999L41.7893 52.5999C41.1893 50.3999 41.0893 48.3999 41.7893 46.8999C41.8893 46.6999 41.9893 46.4999 42.0893 46.2999C42.0893 46.2999 42.0893 46.1999 42.1893 46.1999C42.2893 45.8999 42.4893 45.6999 42.6893 45.4999C42.5893 45.4999 42.5893 45.4999 42.6893 45.4999ZM46.4893 41.7999C46.4893 42.0999 46.3893 42.2999 46.3893 42.5999C46.3893 42.7999 46.3893 43.0999 46.3893 43.3999C46.3893 43.5999 46.3893 43.8999 46.4893 44.1999C46.5893 44.8999 46.6893 45.6999 46.9893 46.4999C47.0893 46.6999 47.0893 46.8999 47.1893 47.1999L44.9893 49.3999C44.6893 48.3999 44.5893 47.4999 44.4893 46.5999C44.4893 45.7999 44.4893 45.0999 44.6893 44.4999C44.7893 44.1999 44.8893 43.8999 44.9893 43.6999C45.1893 43.1999 45.3893 42.8999 45.5893 42.5999C45.6893 42.3999 45.8893 42.2999 45.9893 42.0999C46.0893 41.9999 46.2893 41.8999 46.4893 41.7999ZM60.3893 61.9999L59.7893 62.5999L59.4893 62.8999L58.0893 64.2999H57.9893C57.5893 64.0999 57.1893 63.8999 56.7893 63.6999C56.0893 63.2999 55.4893 62.8999 54.7893 62.3999L57.0893 60.0999C58.2893 60.7999 59.2893 61.3999 60.3893 61.9999ZM45.1893 53.3999C45.7893 54.4999 46.3893 55.4999 47.1893 56.5999L44.8893 58.8999C44.1893 57.7999 43.4893 56.7999 42.9893 55.6999L45.1893 53.3999ZM46.6893 61.1999L48.9893 58.8999C49.3893 59.2999 49.7893 59.7999 50.1893 60.1999C50.5893 60.5999 51.0893 60.9999 51.4893 61.3999L49.1893 63.6999C48.7893 63.2999 48.2893 62.8999 47.8893 62.4999C47.7893 62.3999 47.6893 62.1999 47.4893 62.0999C47.2893 61.7999 46.9893 61.4999 46.6893 61.1999ZM53.8893 63.3999C54.8893 64.1999 55.9893 64.7999 57.0893 65.3999L54.8893 67.5999C53.8893 67.0999 52.7893 66.4999 51.7893 65.6999C51.7893 65.6999 51.6893 65.6999 51.6893 65.5999L53.8893 63.3999ZM54.8893 58.0999L52.5893 60.3999C52.1893 59.9999 51.6893 59.5999 51.2893 59.1999C50.8893 58.7999 50.4893 58.2999 50.0893 57.8999L50.7893 57.1999L52.3893 55.5999C52.7893 55.9999 53.1893 56.4999 53.5893 56.8999C53.8893 57.1999 54.2893 57.5999 54.5893 57.8999C54.6893 57.9999 54.7893 57.9999 54.8893 58.0999ZM50.4893 53.1999L49.7893 53.8999L48.3893 55.2999L48.2893 55.3999C47.5893 54.2999 46.8893 53.2999 46.3893 52.1999L46.6893 51.8999L48.5893 49.9999C49.0893 50.9999 49.6893 51.9999 50.3893 52.8999C50.2893 53.0999 50.3893 53.0999 50.4893 53.1999ZM68.2893 64.4999C68.1893 64.5999 67.9893 64.7999 67.7893 64.8999C67.4893 65.0999 67.2893 65.2999 66.9893 65.3999C66.6893 65.4999 66.4893 65.5999 66.1893 65.6999C64.8893 65.9999 63.2893 65.9999 61.4893 65.4999C61.3893 65.4999 61.2893 65.4999 61.2893 65.3999L63.4893 63.1999C63.6893 63.2999 63.9893 63.3999 64.1893 63.3999C64.9893 63.5999 65.7893 63.7999 66.4893 63.8999C66.7893 63.8999 66.9893 63.9999 67.2893 63.9999C67.4893 63.9999 67.6893 63.9999 67.8893 63.9999C67.9893 63.9999 67.9893 63.9999 68.0893 63.9999C68.3893 63.9999 68.6893 63.9999 68.8893 63.8999C68.5893 64.1999 68.4893 64.2999 68.2893 64.4999ZM71.6893 61.1999C71.4893 61.3999 71.3893 61.4999 71.1893 61.5999C70.8893 61.7999 70.6893 61.9999 70.3893 62.0999C70.0893 62.1999 69.8893 62.2999 69.5893 62.3999C69.0893 62.4999 68.4893 62.5999 67.8893 62.5999C67.5893 62.5999 67.3893 62.5999 67.0893 62.5999C66.7893 62.5999 66.5893 62.4999 66.2893 62.4999C65.6893 62.3999 65.0893 62.2999 64.4893 62.0999C64.0893 61.9999 63.5893 61.7999 63.1893 61.5999C62.5893 61.3999 62.0893 61.0999 61.4893 60.7999C61.1893 60.5999 60.7893 60.4999 60.4893 60.2999L60.3893 60.1999C59.0893 59.4999 57.8893 58.5999 56.6893 57.5999C55.9893 56.9999 55.3893 56.4999 54.7893 55.7999C54.4893 55.4999 54.1893 55.0999 53.8893 54.7999C53.1893 53.9999 52.5893 53.2999 51.9893 52.4999C51.2893 51.4999 50.5893 50.3999 50.0893 49.3999C49.4893 48.2999 48.9893 47.0999 48.6893 45.9999C48.4893 45.3999 48.3893 44.7999 48.2893 44.1999C48.2893 43.8999 48.1893 43.6999 48.1893 43.3999C48.1893 43.0999 48.1893 42.8999 48.1893 42.5999C48.1893 41.9999 48.2893 41.3999 48.3893 40.8999C48.4893 40.5999 48.5893 40.2999 48.6893 40.0999C48.7893 39.7999 48.9893 39.4999 49.1893 39.2999C49.2893 39.0999 49.4893 38.9999 49.5893 38.7999C50.4893 37.8999 51.8893 37.3999 53.4893 37.3999C57.2893 37.3999 62.3893 39.8999 66.5893 44.0999C72.3893 50.1999 74.8893 57.9999 71.6893 61.1999ZM39.2893 48.7999L39.7893 48.2999C39.7893 48.2999 39.7893 48.2999 39.7893 48.3999C39.5893 49.7999 39.7893 51.3999 40.2893 53.0999C40.3893 53.2999 40.3893 53.4999 40.4893 53.7999L38.3893 55.8999C37.5893 52.9999 37.7893 50.3999 39.2893 48.7999ZM41.7893 56.6999C42.2893 57.6999 42.9893 58.6999 43.6893 59.6999L43.7893 59.7999L41.4893 62.0999C40.7893 60.9999 40.0893 59.9999 39.5893 58.8999L41.7893 56.6999ZM43.3893 64.4999L45.6893 62.1999C46.0893 62.5999 46.4893 63.0999 46.8893 63.4999C47.2893 63.8999 47.7893 64.2999 48.1893 64.6999L45.8893 66.9999C45.4893 66.5999 44.9893 66.1999 44.5893 65.7999C44.1893 65.3999 43.7893 64.9999 43.3893 64.4999ZM50.5893 66.6999C51.5893 67.4999 52.6893 68.0999 53.7893 68.6999L51.4893 70.8999C50.3893 70.3999 49.3893 69.6999 48.2893 68.9999L50.5893 66.6999ZM61.6893 71.1999C60.1893 72.6999 57.6893 72.9999 54.5893 72.0999L56.7893 69.8999C56.9893 69.9999 57.2893 70.0999 57.4893 70.0999C58.6893 70.4999 59.8893 70.6999 60.9893 70.6999C61.0893 70.6999 61.0893 70.6999 61.1893 70.6999C61.5893 70.6999 61.8893 70.6999 62.2893 70.5999L61.6893 71.1999Z" fill="black"/>
<path d="M66.1892 51.5999C65.0892 49.9999 63.0892 48.2999 61.0892 48.1999L58.8892 47.9999L57.6892 47.8999C57.6892 47.8999 57.6892 47.8999 57.5892 47.8999C57.2892 47.8999 56.9892 47.6999 56.6892 47.3999C56.5892 47.2999 56.5892 47.2999 56.4892 47.1999C56.4892 47.1999 56.4892 47.0999 56.3892 47.0999C56.3892 47.0999 56.3892 46.9999 56.2892 46.9999C56.0892 46.4999 56.3892 46.3999 56.5892 46.2999L60.3892 45.0999L60.6892 44.9999L59.5892 43.5999L58.3892 41.9999L57.4892 42.2999L56.4892 42.5999L56.3892 42.7999L56.0892 42.4999L55.1892 41.1999L54.9892 40.8999L54.7892 40.9999L53.5892 41.3999L53.0892 41.5999L54.4892 43.4999C53.9892 43.6999 53.6892 43.9999 53.4892 44.4999C53.3892 44.6999 53.3892 44.9999 53.3892 45.2999C53.3892 45.5999 53.4892 45.7999 53.5892 46.0999C53.5892 46.1999 53.5892 46.1999 53.6892 46.2999C53.8892 46.8999 54.1892 47.3999 54.5892 47.9999C54.8892 48.3999 55.1892 48.7999 55.6892 49.1999C56.6892 50.1999 58.0892 50.9999 59.4892 51.1999L60.1892 51.2999L61.2892 51.3999L62.3892 51.4999H62.9892C63.5892 51.4999 63.9892 51.8999 64.2892 52.2999C64.5892 52.6999 64.5892 53.0999 64.1892 53.2999L63.9892 53.3999L63.1892 53.5999L62.3892 53.7999L62.0892 53.8999L59.8892 54.5999L60.1892 54.9999L61.1892 56.2999L62.1892 57.5999L64.0892 56.9999L64.4892 56.8999L65.8892 58.6999L66.1892 58.5999L66.8892 58.3999L67.8892 58.0999L66.4892 56.1999C67.7892 55.4999 67.3892 53.3999 66.1892 51.5999Z" fill="black"/>
</g>
<defs>
<filter id="filter0_f_138_951" x="0.489258" y="0" width="110" height="110" filterUnits="userSpaceOnUse" color-interpolation-filters="sRGB">
<feFlood flood-opacity="0" result="BackgroundImageFix"/>
<feBlend mode="normal" in="SourceGraphic" in2="BackgroundImageFix" result="shape"/>
<feGaussianBlur stdDeviation="10" result="effect1_foregroundBlur_138_951"/>
</filter>
<linearGradient id="paint0_linear_138_951" x1="-34.2433" y1="71.7195" x2="37.3389" y2="136.065" gradientUnits="userSpaceOnUse">
<stop offset="0.546013" stop-color="#B276D9"/>
<stop offset="0.937279" stop-color="#3E8ED7"/>
</linearGradient>
<clipPath id="clip0_138_951">
<rect width="38.2" height="38.2" fill="white" transform="translate(36.3893 35.8999)"/>
</clipPath>
</defs>
</svg>
