<svg width="111" height="111" viewBox="0 0 111 111" fill="none" xmlns="http://www.w3.org/2000/svg">
<g filter="url(#filter0_f_138_949)">
<path d="M20.4893 55.3232C20.4893 35.9933 36.1593 20.3232 55.4893 20.3232C74.8192 20.3232 90.4893 35.9933 90.4893 55.3232C90.4893 74.6532 74.8192 90.3232 55.4893 90.3232C36.1593 90.3232 20.4893 74.6532 20.4893 55.3232Z" fill="url(#paint0_linear_138_949)"/>
</g>
<g clip-path="url(#clip0_138_949)">
<path d="M70.6393 57.1732C69.6393 53.6732 67.2393 49.9732 64.0393 46.6732C60.8393 43.5732 57.1393 41.1732 53.6393 40.1732C49.9393 39.0732 46.8393 39.5732 44.9393 41.4732L41.6393 44.7732C39.7393 46.6732 39.2393 49.7732 40.3393 53.4732C41.3393 56.9732 43.7393 60.6732 46.9393 63.9732C50.1393 67.1732 53.8393 69.5732 57.4393 70.5732C58.7393 70.9732 60.0393 71.1732 61.1393 71.1732C63.1393 71.1732 64.9393 70.5732 66.1393 69.2732L69.4393 65.9732C71.3393 63.9732 71.7393 60.8732 70.6393 57.1732ZM42.6393 45.8732L43.1393 45.3732C42.9393 46.7732 43.1393 48.3732 43.6393 50.1732C43.7393 50.2732 43.8393 50.5732 43.8393 50.7732L41.7393 52.8732C40.8393 49.8732 41.1393 47.2732 42.6393 45.8732ZM45.1393 53.7732C45.7393 54.8732 46.3393 55.8732 47.1393 56.9732L44.8393 59.2732C44.1393 58.1732 43.4393 57.1732 42.9393 56.0732L45.1393 53.7732ZM46.7393 61.4732L49.0393 59.1732C49.4393 59.5732 49.8393 60.0732 50.2393 60.4732C50.6393 60.8732 51.1393 61.2732 51.5393 61.6732L49.2393 63.9732C48.8393 63.5732 48.3393 63.1732 47.9393 62.7732C47.5393 62.3732 47.1393 61.9732 46.7393 61.4732ZM53.9393 63.6732C54.9393 64.4732 56.0393 65.0732 57.0393 65.6732L54.8393 67.8732C53.7393 67.3732 52.7393 66.6732 51.6393 65.9732L53.9393 63.6732ZM65.0393 68.1732C63.5393 69.6732 61.0393 69.9732 57.9393 69.0732L60.0393 66.9732C61.5393 67.4732 63.0393 67.7732 64.4393 67.7732C64.8393 67.7732 65.1393 67.7732 65.5393 67.6732L65.0393 68.1732ZM68.3393 64.8732C65.1393 68.0732 57.3393 65.5732 51.3393 59.5732C45.2393 53.4732 42.8393 45.7732 46.0393 42.5732C46.9393 41.5732 48.2393 41.0732 49.9393 41.0732C50.9393 41.0732 52.0393 41.2732 53.2393 41.5732C56.5393 42.5732 60.0393 44.7732 63.0393 47.7732C66.0393 50.7732 68.2393 54.2732 69.2393 57.5732C70.1393 60.7732 69.8393 63.3732 68.3393 64.8732Z" fill="black"/>
<path d="M62.8393 55.2732C61.7393 53.6732 59.7393 51.9732 57.7393 51.8732L54.2393 51.6732C53.8393 51.6732 53.4393 51.3732 53.1393 50.9732C52.6393 50.2732 53.1393 50.0732 53.2393 50.0732L57.3393 48.7732L55.1393 45.7732L52.9393 46.4732L51.6393 44.5732L49.6393 45.1732L51.0393 47.0732C49.4393 47.6732 49.8393 49.7732 51.0393 51.5732C52.0393 52.9732 53.8393 54.5732 55.9393 54.7732L59.4393 55.0732C60.0393 55.0732 60.4393 55.4732 60.7393 55.8732C61.0393 56.2732 61.0393 56.6732 60.6393 56.8732L56.3393 58.1732L58.6393 61.1732L61.0393 60.4732L62.4393 62.2732L64.4393 61.6732L63.0393 59.7732C64.4393 59.1732 64.0393 57.0732 62.8393 55.2732Z" fill="black"/>
</g>
<defs>
<filter id="filter0_f_138_949" x="0.489258" y="0.323242" width="110" height="110" filterUnits="userSpaceOnUse" color-interpolation-filters="sRGB">
<feFlood flood-opacity="0" result="BackgroundImageFix"/>
<feBlend mode="normal" in="SourceGraphic" in2="BackgroundImageFix" result="shape"/>
<feGaussianBlur stdDeviation="10" result="effect1_foregroundBlur_138_949"/>
</filter>
<linearGradient id="paint0_linear_138_949" x1="-34.2433" y1="72.0427" x2="37.3389" y2="136.388" gradientUnits="userSpaceOnUse">
<stop offset="0.216477" stop-color="#B276D9"/>
<stop offset="0.819574" stop-color="#3E8ED7"/>
</linearGradient>
<clipPath id="clip0_138_949">
<rect width="31.5" height="31.5" fill="white" transform="translate(39.7393 39.5732)"/>
</clipPath>
</defs>
</svg>
